# xmcd
#
# Track frame offsets:
#	150
#	13863
#	32423
#	49498
#	66175
#	82572
#	98818
#	116737
#	131649
#	143328
#
# Disc length: 2069 seconds
#
# Revision: 1
# Processed by: cddbd v1.5.1PL0 Copyright (c) Steve Scherf et al.
# Submitted via: audiograbber 1.83.01
#
DISCID=7b08130a
DTITLE=George Strait - The Road Less Traveled
DYEAR=2001
DGENRE=Country
TTITLE0=She'll Leave You With A Smile
TTITLE1=Run
TTITLE2=Stars On The Water
TTITLE3=Living And Living Well
TTITLE4=The Real Thing
TTITLE5=Don't Tell Me You're Not In Love
TTITLE6=Road Less Traveled
TTITLE7=The Middle Of Nowhere
TTITLE8=Good Time Charley's
TTITLE9=My Life's Been Grand
EXTD=
EXTT0=
EXTT1=
EXTT2=
EXTT3=
EXTT4=
EXTT5=
EXTT6=
EXTT7=
EXTT8=
EXTT9=
PLAYORDER=
